<?xml version="1.0" encoding="UTF-8"?>
<svg xmlns="http://www.w3.org/2000/svg" xmlns:xlink="http://www.w3.org/1999/xlink" version="1.1" viewBox="0 0 256 256">
  <defs>
    <style>
      .cls-1 {
        fill: #f4f2ed;
      }

      .cls-2 {
        fill: url(#linear-gradient-4);
      }

      .cls-3 {
        fill: url(#linear-gradient-3);
      }

      .cls-4 {
        fill: url(#linear-gradient-2);
      }

      .cls-5 {
        fill: url(#linear-gradient);
      }

      .cls-6 {
        fill: #111827;
      }
    </style>
    <linearGradient id="linear-gradient" x1="-416.5" y1="136.4" x2="-418.5" y2="139.8" gradientTransform="translate(5024.2 -4096.3) scale(11.9 30.7)" gradientUnits="userSpaceOnUse">
      <stop offset="0" stop-color="#eab308"/>
      <stop offset="1" stop-color="#ca8a04"/>
    </linearGradient>
    <linearGradient id="linear-gradient-2" x1="-446.6" y1="135.1" x2="-444.7" y2="139.5" gradientTransform="translate(17865.5 -4099.1) scale(39.8 30.7)" gradientUnits="userSpaceOnUse">
      <stop offset="0" stop-color="#fde68a"/>
      <stop offset="1" stop-color="#fbbf24"/>
    </linearGradient>
    <linearGradient id="linear-gradient-3" x1="-347" y1="257.6" x2="-342.2" y2="257.6" gradientTransform="translate(1962.1 -1221.4) scale(5.2)" gradientUnits="userSpaceOnUse">
      <stop offset="0" stop-color="#7dd3fc"/>
      <stop offset="1" stop-color="#0ea5e9"/>
    </linearGradient>
    <linearGradient id="linear-gradient-4" x1="-362" x2="-357.1" gradientTransform="translate(1942.1 -1221.4) scale(5.2)" xlink:href="#linear-gradient-3"/>
  </defs>
  <!-- Generator: Adobe Illustrator 28.6.0, SVG Export Plug-In . SVG Version: 1.2.0 Build 709)  -->
  <g>
    <g id="Layer_1">
      <rect class="cls-1" width="256" height="256" rx="60" ry="60"/>
      <path class="cls-5" d="M80.8,53.7c-30.8,0-54.7,24.9-55.7,58.2l-1.5,43.5c-2,36.2,33.2,48.4,58.2,48.4l-1-150.1Z"/>
      <path class="cls-4" d="M83.3,53.7h104.1c24.4-.5,44.5,18.6,45,43l2.9,62.1c0,30.8-22,43.5-47.9,43.5l-104.1,1.5c-26.9,0-43-20-42.5-45l1.5-62.1c2-27.4,13.7-42.5,41.1-43h0Z"/>
      <path class="cls-6" d="M89.2,59.3h97.8c22.5-.5,41.5,17.1,42.5,39.6l2.4,57.7c0,28.8-20.5,40.6-45,40.6l-97.8,1c-24.9,0-40.1-18.6-39.6-42l1.5-57.7c1.5-24.9,12.7-38.6,38.1-39.1Z"/>
      <path class="cls-3" d="M192.3,105.5c6.8,0,12.7,5.9,12.7,12.7s-5.9,12.7-12.7,12.7-12.7-5.9-12.7-12.7,5.9-12.7,12.7-12.7h0Z"/>
      <path class="cls-2" d="M94.5,105.5c6.8,0,12.7,5.9,12.7,12.7s-5.9,12.7-12.7,12.7-12.7-5.9-12.7-12.7,5.9-12.7,12.7-12.7h0Z"/>
    </g>
  </g>
</svg>